<svg width="120" height="57" viewBox="0 0 120 57" fill="none" xmlns="http://www.w3.org/2000/svg">
<path d="M60.4383 36.4182C60.4383 37.2744 60.0732 38.0801 58.8188 38.8279C57.596 39.5567 56.3664 39.7917 55.0399 39.7917H50.555L45.2765 43.1652L45.2765 39.7917L38.6875 39.7917C37.1965 39.7917 35.9111 39.4704 34.8315 38.8278C33.8032 38.1531 33.2891 37.3499 33.2891 36.4182V19.5507C33.2891 18.619 33.8032 17.8319 34.8315 17.1893C35.9111 16.5146 37.1965 16.1772 38.6875 16.1772L55.0399 16.1773C56.5309 16.1773 57.7905 16.5146 58.8188 17.1893C59.8985 17.8319 60.4383 18.619 60.4383 19.5508V36.4182ZM54.196 36.3728L54.2687 19.5508L39.4586 19.5507L39.4586 36.3728L45.2287 36.3728L50.5257 32.9783L50.4864 36.3728H54.196Z" fill="white"/>
<path d="M26.9869 19.7391H19.999V39.9155H13.8392V19.7391H0L5.33341 16.3223H32.3341L26.9869 19.7391Z" fill="white"/>
<path fill-rule="evenodd" clip-rule="evenodd" d="M117.373 39.9086C112.904 49.465 103.204 56.0857 91.9572 56.0857C79.399 56.0857 68.7689 47.8309 65.1968 36.4514H83.853L83.8133 39.9086H89.9663V21.2466L83.853 25.1475V33.0733H69.2247V29.5259L89.9663 16.1772H81.4837L63.9153 27.8079C64.0415 12.4284 76.5479 0 91.9572 0C103.379 0 113.207 6.82909 117.579 16.6271C116.899 16.4254 116.2 16.3222 115.578 16.3222H99.1396C95.472 16.3222 93.8209 18.3905 93.8209 19.4487V25.2778L100.001 21.3346L99.9707 19.7282H114.579V21.3441L93.8209 34.8389V39.9086H117.373ZM118.707 36.4835H99.9705V36.1608L119.549 23.649C119.583 23.6269 119.615 23.6049 119.647 23.5829C119.879 25.0353 120 26.525 120 28.0428C120 30.9841 119.547 33.8197 118.707 36.4835Z" fill="#10A4A4"/>
</svg>
