<svg width="129" height="60" viewBox="0 0 129 60" fill="none" xmlns="http://www.w3.org/2000/svg">
<path d="M64.6563 38.9599C64.6563 39.8758 64.2658 40.7378 62.9238 41.5377C61.6157 42.3175 60.3003 42.5688 58.8812 42.5688H54.0832L48.4364 46.1777L48.4364 42.5688L41.3875 42.5688C39.7924 42.5688 38.4174 42.2251 37.2623 41.5377C36.1623 40.8159 35.6123 39.9566 35.6123 38.9599V20.9152C35.6123 19.9185 36.1623 19.0764 37.2623 18.389C38.4174 17.6672 39.7924 17.3063 41.3875 17.3063L58.8812 17.3063C60.4762 17.3063 61.8238 17.6672 62.9238 18.389C64.0788 19.0764 64.6563 19.9185 64.6563 20.9152V38.9599ZM57.9784 38.9113L58.0562 20.9152L42.2125 20.9152L42.2125 38.9113L48.3853 38.9113L54.052 35.28L54.0099 38.9113H57.9784Z" fill="black"/>
<path d="M28.8704 21.1167H21.3948V42.7013H14.8051V21.1167H0L5.70564 17.4614H34.5908L28.8704 21.1167Z" fill="black"/>
<path fill-rule="evenodd" clip-rule="evenodd" d="M125.565 42.6939C120.784 52.9173 110.406 60 98.3747 60C84.9401 60 73.5681 51.1691 69.7467 38.9955H89.7048L89.6624 42.694H96.2448V22.7295L89.7048 26.9027V35.3816H74.0556V31.5867L96.2448 17.3063H87.1702L68.3757 29.7487C68.5107 13.2959 81.89 0 98.3747 0C110.594 0 121.107 7.3057 125.785 17.7875C125.057 17.5718 124.309 17.4614 123.644 17.4614H106.058C102.135 17.4614 100.369 19.674 100.369 20.806V27.042L106.98 22.8236L106.948 21.1051H122.575V22.8337L100.369 37.2704V42.6939H125.565ZM126.992 39.0298H106.947V38.6846L127.893 25.2995C127.928 25.2759 127.963 25.2524 127.997 25.2289C128.246 26.7827 128.375 28.3763 128.375 30C128.375 33.1466 127.89 36.18 126.992 39.0298Z" fill="#10A4A4"/>
</svg>
